<svg width="23" height="23" viewBox="0 0 23 23" fill="none" xmlns="http://www.w3.org/2000/svg">
<g clip-path="url(#clip0_3840_41983)">
<path d="M18.2083 17.8151C17.9542 17.8151 17.7104 17.9161 17.5307 18.0958C17.351 18.2755 17.25 18.5193 17.25 18.7734V20.8434C17.25 20.907 17.2248 20.9679 17.1798 21.0128C17.1349 21.0578 17.074 21.083 17.0104 21.083H2.15625C2.09589 21.0832 2.03769 21.0606 1.99327 21.0197C1.94885 20.9789 1.92149 20.9228 1.91667 20.8626V4.57092C1.91667 4.50738 1.94191 4.44644 1.98684 4.40151C2.03177 4.35658 2.09271 4.33134 2.15625 4.33134H3.35417C3.60833 4.33134 3.85209 4.23037 4.03181 4.05065C4.21153 3.87093 4.3125 3.62717 4.3125 3.37301C4.3125 3.11884 4.21153 2.87509 4.03181 2.69536C3.85209 2.51564 3.60833 2.41467 3.35417 2.41467H1.91667C1.40833 2.41467 0.920823 2.61661 0.561379 2.97605C0.201934 3.3355 0 3.82301 0 4.33134L0 21.083C0 21.5913 0.201934 22.0788 0.561379 22.4383C0.920823 22.7977 1.40833 22.9997 1.91667 22.9997H17.25C17.7583 22.9997 18.2458 22.7977 18.6053 22.4383C18.9647 22.0788 19.1667 21.5913 19.1667 21.083V18.7734C19.1667 18.5193 19.0657 18.2755 18.886 18.0958C18.7063 17.9161 18.4625 17.8151 18.2083 17.8151ZM15.8125 4.31217H17.0104C17.074 4.31217 17.1349 4.33742 17.1798 4.38235C17.2248 4.42728 17.25 4.48822 17.25 4.55176V5.27051C17.25 5.52467 17.351 5.76843 17.5307 5.94815C17.7104 6.12787 17.9542 6.22884 18.2083 6.22884C18.4625 6.22884 18.7063 6.12787 18.886 5.94815C19.0657 5.76843 19.1667 5.52467 19.1667 5.27051V4.31217C19.1667 3.80384 18.9647 3.31633 18.6053 2.95689C18.2458 2.59744 17.7583 2.39551 17.25 2.39551H15.8125C15.5583 2.39551 15.3146 2.49647 15.1349 2.6762C14.9551 2.85592 14.8542 3.09968 14.8542 3.35384C14.8542 3.60801 14.9551 3.85176 15.1349 4.03148C15.3146 4.21121 15.5583 4.31217 15.8125 4.31217Z" fill="#003E80"/>
<path d="M6.71094 5.27083H12.4609C12.8422 5.27083 13.2078 5.11938 13.4774 4.8498C13.747 4.58022 13.8984 4.21458 13.8984 3.83333V3.35417C13.8984 2.97292 13.747 2.60728 13.4774 2.3377C13.2078 2.06812 12.8422 1.91667 12.4609 1.91667H11.5026C11.5026 1.40833 11.3007 0.920823 10.9412 0.561379C10.5818 0.201934 10.0943 0 9.58594 0C9.07761 0 8.59009 0.201934 8.23065 0.561379C7.8712 0.920823 7.66927 1.40833 7.66927 1.91667H6.71094C6.32969 1.91667 5.96405 2.06812 5.69447 2.3377C5.42489 2.60728 5.27344 2.97292 5.27344 3.35417V3.83333C5.27344 4.21458 5.42489 4.58022 5.69447 4.8498C5.96405 5.11938 6.32969 5.27083 6.71094 5.27083ZM3.83594 9.58333C3.83594 9.8375 3.9369 10.0813 4.11663 10.261C4.29635 10.4407 4.5401 10.5417 4.79427 10.5417H12.4609C12.7151 10.5417 12.9589 10.4407 13.1386 10.261C13.3183 10.0813 13.4193 9.8375 13.4193 9.58333C13.4193 9.32917 13.3183 9.08541 13.1386 8.90569C12.9589 8.72597 12.7151 8.625 12.4609 8.625H4.79427C4.5401 8.625 4.29635 8.72597 4.11663 8.90569C3.9369 9.08541 3.83594 9.32917 3.83594 9.58333ZM4.79427 13.4167C4.5401 13.4167 4.29635 13.5176 4.11663 13.6974C3.9369 13.8771 3.83594 14.1208 3.83594 14.375C3.83594 14.6292 3.9369 14.8729 4.11663 15.0526C4.29635 15.2324 4.5401 15.3333 4.79427 15.3333H9.10677C9.36094 15.3333 9.60469 15.2324 9.78441 15.0526C9.96414 14.8729 10.0651 14.6292 10.0651 14.375C10.0651 14.1208 9.96414 13.8771 9.78441 13.6974C9.60469 13.5176 9.36094 13.4167 9.10677 13.4167H4.79427ZM22.4372 7.89667C22.0781 7.53969 21.5923 7.33931 21.0859 7.33931C20.5796 7.33931 20.0938 7.53969 19.7347 7.89667L12.1926 15.4388C12.1455 15.4843 12.1095 15.5401 12.0872 15.6017L10.7264 18.9846C10.6925 19.0719 10.6845 19.1671 10.7031 19.2588C10.7218 19.3505 10.7665 19.435 10.8318 19.5021C10.8975 19.5695 10.982 19.6156 11.0743 19.6344C11.1666 19.6532 11.2624 19.6438 11.3493 19.6075L14.7418 18.2562C14.8017 18.2306 14.8567 18.1949 14.9047 18.1508L22.4372 10.6087C22.6154 10.4307 22.7568 10.2194 22.8532 9.98668C22.9497 9.754 22.9993 9.50459 22.9993 9.25271C22.9993 9.00083 22.9497 8.75142 22.8532 8.51874C22.7568 8.28606 22.6154 8.07467 22.4372 7.89667Z" fill="#003E80"/>
</g>
<defs>
<clipPath id="clip0_3840_41983">
<rect width="23" height="23" fill="white"/>
</clipPath>
</defs>
</svg>
