<svg width="25" height="25" viewBox="0 0 25 25" fill="none" xmlns="http://www.w3.org/2000/svg">
<path d="M10.6432 2.77713C10.8516 2.77713 11.0515 2.85908 11.1988 3.00494C11.3462 3.15081 11.429 3.34865 11.429 3.55493C11.429 3.76122 11.3462 3.95906 11.1988 4.10492C11.0515 4.25079 10.8516 4.33274 10.6432 4.33274H5.53586C5.01488 4.33274 4.51523 4.5376 4.14684 4.90227C3.77845 5.26693 3.57149 5.76153 3.57149 6.27724V19.4999C3.57149 20.0156 3.77845 20.5102 4.14684 20.8749C4.51523 21.2395 5.01488 21.4444 5.53586 21.4444H18.8936C19.4145 21.4444 19.9142 21.2395 20.2826 20.8749C20.651 20.5102 20.8579 20.0156 20.8579 19.4999V15.222C20.8579 15.0157 20.9407 14.8178 21.0881 14.672C21.2354 14.5261 21.4353 14.4442 21.6437 14.4442C21.8521 14.4442 22.0519 14.5261 22.1993 14.672C22.3466 14.8178 22.4294 15.0157 22.4294 15.222V19.4999C22.4294 20.4282 22.0569 21.3184 21.3938 21.9748C20.7307 22.6312 19.8313 23 18.8936 23H5.53586C4.59809 23 3.69873 22.6312 3.03563 21.9748C2.37253 21.3184 2 20.4282 2 19.4999V6.27724C2 5.34896 2.37253 4.45869 3.03563 3.80229C3.69873 3.14589 4.59809 2.77713 5.53586 2.77713H10.6432ZM15.0277 2.07166C15.1638 2.00943 15.3151 1.98706 15.4636 2.00718C15.6122 2.0273 15.7518 2.08908 15.8661 2.18522L23.7235 8.79655C23.8102 8.86956 23.8798 8.96035 23.9275 9.06261C23.9753 9.16488 24 9.27619 24 9.38884C24 9.5015 23.9753 9.61281 23.9275 9.71507C23.8798 9.81734 23.8102 9.90812 23.7235 9.98114L15.8661 16.5925C15.7518 16.6887 15.6121 16.7506 15.4634 16.7707C15.3147 16.7908 15.1633 16.7684 15.0271 16.706C14.8909 16.6437 14.7756 16.5441 14.6948 16.4189C14.614 16.2938 14.5711 16.1483 14.5712 15.9998V12.9197C12.0623 13.1204 10.1427 14.2591 8.80378 15.4188C8.19233 15.9487 7.63564 16.5376 7.14193 17.1766C6.96246 17.4103 6.79337 17.6517 6.63512 17.8999L6.61391 17.9357L6.60919 17.9404L6.60998 17.9412C6.52512 18.0878 6.39434 18.2031 6.23742 18.2696C6.08049 18.3361 5.90596 18.3502 5.74022 18.3097C5.57448 18.2693 5.42654 18.1766 5.31879 18.0455C5.21103 17.9145 5.14932 17.7522 5.14299 17.5834C5.14299 17.4107 5.14063 17.238 5.14534 17.0654C5.15399 16.7496 5.17835 16.3016 5.23963 15.7664C5.36143 14.7008 5.63251 13.2635 6.2336 11.8152C6.8347 10.3669 7.77917 8.87821 9.26266 7.75118C10.6024 6.73304 12.3412 6.0439 14.572 5.91323V2.77713C14.572 2.62876 14.615 2.48351 14.6957 2.35851C14.7765 2.23351 14.8917 2.13398 15.0277 2.07166Z" fill="white"/>
</svg>
