<svg width="48" height="48" viewBox="0 0 48 48" fill="none" xmlns="http://www.w3.org/2000/svg">
<rect x="0.608277" y="0.608277" width="46.7834" height="46.7834" rx="23.3917" stroke="black" stroke-width="1.21655"/>
<path d="M24.8764 15.4609C25.8369 15.4635 26.3243 15.4686 26.7452 15.4806L26.9109 15.4865C27.1021 15.4934 27.2908 15.5019 27.5187 15.5122C28.4271 15.5548 29.0469 15.6983 29.5907 15.9091C30.1542 16.126 30.6289 16.4197 31.1036 16.8935C31.5378 17.3201 31.8738 17.8364 32.0879 18.4063C32.2988 18.9502 32.4422 19.57 32.4849 20.4792C32.4951 20.7063 32.5037 20.895 32.5105 21.087L32.5156 21.2527C32.5284 21.6727 32.5336 22.1602 32.5353 23.1206L32.5361 23.7575V24.8759C32.5382 25.4986 32.5316 26.1214 32.5165 26.7439L32.5114 26.9095C32.5045 27.1016 32.496 27.2903 32.4857 27.5174C32.4431 28.4266 32.2979 29.0456 32.0879 29.5902C31.8738 30.1601 31.5378 30.6764 31.1036 31.1031C30.6769 31.5374 30.1606 31.8733 29.5907 32.0874C29.0469 32.2983 28.4271 32.4417 27.5187 32.4844L26.9109 32.51L26.7452 32.5151C26.3243 32.5271 25.8369 32.5331 24.8764 32.5348L24.2395 32.5356H23.122C22.499 32.5378 21.876 32.5313 21.2532 32.516L21.0875 32.5109C20.8849 32.5032 20.6822 32.4944 20.4797 32.4844C19.5713 32.4417 18.9515 32.2983 18.4068 32.0874C17.8372 31.8732 17.3212 31.5373 16.8948 31.1031C16.4602 30.6765 16.124 30.1602 15.9096 29.5902C15.6988 29.0464 15.5553 28.4266 15.5126 27.5174L15.487 26.9095L15.4828 26.7439C15.467 26.1214 15.4599 25.4986 15.4614 24.8759V23.1206C15.4591 22.4979 15.4653 21.8752 15.4802 21.2527L15.4862 21.087C15.493 20.895 15.5015 20.7063 15.5118 20.4792C15.5545 19.57 15.6979 18.951 15.9088 18.4063C16.1237 17.8362 16.4605 17.3199 16.8957 16.8935C17.3218 16.4594 17.8375 16.1235 18.4068 15.9091C18.9515 15.6983 19.5704 15.5548 20.4797 15.5122C20.7068 15.5019 20.8963 15.4934 21.0875 15.4865L21.2532 15.4814C21.8757 15.4663 22.4984 15.4597 23.1211 15.4618L24.8764 15.4609ZM23.9988 19.7296C22.8666 19.7296 21.7809 20.1793 20.9804 20.9799C20.1798 21.7804 19.7301 22.8662 19.7301 23.9983C19.7301 25.1304 20.1798 26.2162 20.9804 27.0167C21.7809 27.8172 22.8666 28.267 23.9988 28.267C25.1309 28.267 26.2166 27.8172 27.0172 27.0167C27.8177 26.2162 28.2674 25.1304 28.2674 23.9983C28.2674 22.8662 27.8177 21.7804 27.0172 20.9799C26.2166 20.1793 25.1309 19.7296 23.9988 19.7296ZM23.9988 21.4371C24.3351 21.437 24.6682 21.5032 24.9789 21.6319C25.2897 21.7605 25.5721 21.9491 25.8099 22.1869C26.0478 22.4247 26.2365 22.707 26.3653 23.0178C26.494 23.3285 26.5603 23.6615 26.5604 23.9979C26.5605 24.3342 26.4943 24.6673 26.3656 24.978C26.2369 25.2888 26.0483 25.5712 25.8105 25.809C25.5728 26.0469 25.2904 26.2356 24.9797 26.3644C24.669 26.4931 24.336 26.5594 23.9996 26.5595C23.3204 26.5595 22.6689 26.2896 22.1886 25.8093C21.7083 25.329 21.4384 24.6776 21.4384 23.9983C21.4384 23.319 21.7083 22.6676 22.1886 22.1872C22.6689 21.7069 23.3204 21.4371 23.9996 21.4371M28.4817 18.449C28.1987 18.449 27.9273 18.5614 27.7271 18.7616C27.527 18.9617 27.4146 19.2331 27.4146 19.5162C27.4146 19.7992 27.527 20.0706 27.7271 20.2708C27.9273 20.4709 28.1987 20.5833 28.4817 20.5833C28.7648 20.5833 29.0362 20.4709 29.2363 20.2708C29.4365 20.0706 29.5489 19.7992 29.5489 19.5162C29.5489 19.2331 29.4365 18.9617 29.2363 18.7616C29.0362 18.5614 28.7648 18.449 28.4817 18.449Z" fill="black"/>
</svg>
