<svg width="48" height="48" viewBox="0 0 48 48" fill="none" xmlns="http://www.w3.org/2000/svg">
<rect x="0.608277" y="0.608277" width="46.7834" height="46.7834" rx="23.3917" stroke="black" stroke-width="1.21655"/>
<path d="M19.0445 17.7282C19.0442 18.2034 18.8552 18.6591 18.519 18.9949C18.1829 19.3308 17.727 19.5193 17.2518 19.5191C16.7766 19.5188 16.321 19.3298 15.9851 18.9937C15.6492 18.6575 15.4607 18.2016 15.4609 17.7264C15.4612 17.2512 15.6502 16.7956 15.9864 16.4597C16.3226 16.1239 16.7784 15.9353 17.2536 15.9355C17.7288 15.9358 18.1845 16.1248 18.5203 16.461C18.8562 16.7972 19.0447 17.253 19.0445 17.7282ZM19.0982 20.8459H15.5147V32.0624H19.0982V20.8459ZM24.7602 20.8459H21.1946V32.0624H24.7244V26.1764C24.7244 22.8975 28.9978 22.5929 28.9978 26.1764V32.0624H32.5365V24.958C32.5365 19.4304 26.2116 19.6364 24.7244 22.351L24.7602 20.8459Z" fill="black"/>
</svg>
